<svg width="22" height="21" viewBox="0 0 22 21" fill="none" xmlns="http://www.w3.org/2000/svg">
<path d="M15.1 11.3L13.65 9.85005C13.8 9.06672 13.575 8.33338 12.975 7.65005C12.375 6.96671 11.6 6.70005 10.65 6.85005L9.2 5.40005C9.48333 5.26672 9.771 5.16672 10.063 5.10005C10.355 5.03338 10.6673 5.00005 11 5.00005C12.25 5.00005 13.3127 5.43772 14.188 6.31305C15.0633 7.18838 15.5007 8.25072 15.5 9.50005C15.5 9.83338 15.4667 10.146 15.4 10.438C15.3333 10.73 15.2333 11.0174 15.1 11.3ZM18.3 14.45L16.85 13.05C17.4833 12.5667 18.046 12.0377 18.538 11.463C19.03 10.8884 19.4507 10.234 19.8 9.50005C18.9667 7.81672 17.7707 6.47905 16.212 5.48705C14.6533 4.49505 12.916 3.99938 11 4.00005C10.5167 4.00005 10.0417 4.03338 9.575 4.10005C9.10833 4.16672 8.65 4.26672 8.2 4.40005L6.65 2.85005C7.33333 2.56672 8.03333 2.35405 8.75 2.21205C9.46667 2.07005 10.2167 1.99938 11 2.00005C13.5167 2.00005 15.7583 2.69572 17.725 4.08705C19.6917 5.47838 21.1167 7.28272 22 9.50005C21.6167 10.4834 21.1123 11.396 20.487 12.238C19.8617 13.08 19.1327 13.8174 18.3 14.45ZM18.8 20.6L14.6 16.45C14.0167 16.6334 13.4293 16.7711 12.838 16.8631C12.2467 16.9551 11.634 17.0007 11 17C8.48333 17 6.24167 16.3044 4.275 14.913C2.30833 13.5217 0.883333 11.7174 0 9.50005C0.35 8.61672 0.791667 7.79572 1.325 7.03705C1.85833 6.27838 2.46667 5.59938 3.15 5.00005L0.4 2.20005L1.8 0.800049L20.2 19.2001L18.8 20.6ZM4.55 6.40005C4.06667 6.83338 3.625 7.30838 3.225 7.82505C2.825 8.34172 2.48333 8.90005 2.2 9.50005C3.03333 11.1834 4.22933 12.521 5.788 13.513C7.34667 14.505 9.084 15.0007 11 15C11.3333 15 11.6583 14.979 11.975 14.937C12.2917 14.895 12.6167 14.8494 12.95 14.8L12.05 13.85C11.8667 13.9 11.6917 13.9377 11.525 13.963C11.3583 13.9884 11.1833 14.0007 11 14C9.75 14 8.68733 13.5627 7.812 12.688C6.93667 11.8134 6.49933 10.7507 6.5 9.50005C6.5 9.31672 6.51267 9.14172 6.538 8.97505C6.56333 8.80838 6.60067 8.63338 6.65 8.45005L4.55 6.40005Z" fill="#55545B"/>
</svg>
