<svg width="22" height="15" viewBox="0 0 22 15" fill="none" xmlns="http://www.w3.org/2000/svg">
<path d="M10.9999 12C12.2499 12 13.3126 11.5623 14.1879 10.687C15.0632 9.81167 15.5006 8.74933 15.4999 7.5C15.4999 6.25 15.0622 5.18733 14.1869 4.312C13.3116 3.43667 12.2492 2.99933 10.9999 3C9.7499 3 8.68724 3.43767 7.8119 4.313C6.93657 5.18833 6.49924 6.25067 6.4999 7.5C6.4999 8.75 6.93757 9.81267 7.8129 10.688C8.68824 11.5633 9.75057 12.0007 10.9999 12ZM10.9999 10.2C10.2499 10.2 9.61224 9.93733 9.0869 9.412C8.56157 8.88667 8.29924 8.24933 8.2999 7.5C8.2999 6.75 8.56257 6.11233 9.0879 5.587C9.61324 5.06167 10.2506 4.79933 10.9999 4.8C11.7499 4.8 12.3876 5.06267 12.9129 5.588C13.4382 6.11333 13.7006 6.75067 13.6999 7.5C13.6999 8.25 13.4376 8.88767 12.9129 9.413C12.3882 9.93833 11.7506 10.2007 10.9999 10.2ZM10.9999 15C8.76657 15 6.7289 14.4 4.8869 13.2C3.0449 12 1.5909 10.4167 0.524902 8.45C0.441569 8.3 0.379236 8.146 0.337902 7.988C0.296569 7.83 0.275569 7.66733 0.274902 7.5C0.274902 7.33333 0.295902 7.17067 0.337902 7.012C0.379902 6.85333 0.442236 6.69933 0.524902 6.55C1.59157 4.58333 3.04557 3 4.8869 1.8C6.72824 0.6 8.7659 0 10.9999 0C13.2332 0 15.2709 0.6 17.1129 1.8C18.9549 3 20.4089 4.58333 21.4749 6.55C21.5582 6.7 21.6209 6.85433 21.6629 7.013C21.7049 7.17167 21.7256 7.334 21.7249 7.5C21.7249 7.66667 21.7039 7.82933 21.6619 7.988C21.6199 8.14667 21.5576 8.30067 21.4749 8.45C20.4082 10.4167 18.9542 12 17.1129 13.2C15.2716 14.4 13.2339 15 10.9999 15ZM10.9999 13C12.8832 13 14.6126 12.504 16.1879 11.512C17.7632 10.52 18.9672 9.18267 19.7999 7.5C18.9666 5.81667 17.7622 4.479 16.1869 3.487C14.6116 2.495 12.8826 1.99933 10.9999 2C9.11657 2 7.38724 2.496 5.8119 3.488C4.23657 4.48 3.03257 5.81733 2.1999 7.5C3.03324 9.18333 4.23757 10.521 5.8129 11.513C7.38824 12.505 9.11724 13.0007 10.9999 13Z" fill="#55545B"/>
</svg>
